<?xml version="1.0" encoding="utf-8"?>
<!-- Generator: Adobe Illustrator 17.0.0, SVG Export Plug-In . SVG Version: 6.00 Build 0)  -->
<!DOCTYPE svg PUBLIC "-//W3C//DTD SVG 1.1//EN" "http://www.w3.org/Graphics/SVG/1.1/DTD/svg11.dtd">
<svg version="1.1" id="Layer_1" xmlns="http://www.w3.org/2000/svg" xmlns:xlink="http://www.w3.org/1999/xlink" x="0px" y="0px"
	 width="42px" height="42px" viewBox="0 0 42 42" enable-background="new 0 0 42 42" xml:space="preserve">
<path fill="#FFFFFF" d="M39.5,22.5v-3c0-1.48-0.43-2-2-2h-13v-13c0-1.48-0.49-2-2-2h-3c-1.55,0-2,0.52-2,2v13h-14
	c-1.48,0-2,0.49-2,2v3c0,1.55,0.52,2,2,2h14v14c0,1.51,0.48,2,2,2h3c1.48,0,2-0.43,2-2v-14h13C39.01,24.5,39.5,24.02,39.5,22.5z"/>
</svg>
