<?xml version="1.0" encoding="utf-8"?>
<!-- Generator: Adobe Illustrator 17.0.0, SVG Export Plug-In . SVG Version: 6.00 Build 0)  -->
<!DOCTYPE svg PUBLIC "-//W3C//DTD SVG 1.1//EN" "http://www.w3.org/Graphics/SVG/1.1/DTD/svg11.dtd">
<svg version="1.1" id="Layer_1" xmlns="http://www.w3.org/2000/svg" xmlns:xlink="http://www.w3.org/1999/xlink" x="0px" y="0px"
	 width="42px" height="42px" viewBox="0 0 42 42" enable-background="new 0 0 42 42" xml:space="preserve">
<path fill="#FFFFFF" d="M12.791,2.5c-2.71,0-3.29,0.63-3.29,3.35v31.589c0,2.182-0.07,3.021,1.08,3.062
	c0.779,0,1.52-0.681,2.12-1.29c0,0,7.269-8.55,7.749-8.729c0.279-0.11-0.011-0.131-0.021-0.08c-0.01,0.01,0.021,0.039,0.12,0.08
	c0.48,0.18,7.75,8.729,7.75,8.729c0.6,0.609,1.34,1.29,2.119,1.29c1.15-0.04,1.08-0.88,1.08-3.062V5.85c0-2.72-0.58-3.35-3.289-3.35
	H12.791z"/>
</svg>
