<?xml version="1.0" encoding="utf-8"?>
<!-- Generator: Adobe Illustrator 17.0.0, SVG Export Plug-In . SVG Version: 6.00 Build 0)  -->
<!DOCTYPE svg PUBLIC "-//W3C//DTD SVG 1.1//EN" "http://www.w3.org/Graphics/SVG/1.1/DTD/svg11.dtd">
<svg version="1.1" id="Layer_1" xmlns="http://www.w3.org/2000/svg" xmlns:xlink="http://www.w3.org/1999/xlink" x="0px" y="0px"
	 width="42px" height="42px" viewBox="0 0 42 42" enable-background="new 0 0 42 42" xml:space="preserve">
<path fill="#FFFFFF" d="M21.049,14.741c3.58,0.43,8.219,4.52,8.6,8.28c0,0,9.449-9.471,9.439-9.5c1.939-1.94,1.87-2.75-0.15-4.561
	l-4.08-3.68C32.91,3.52,32.16,3.59,30.33,5.41L21.049,14.741z M25.999,23.062c-0.3-1.351-2.929-4.512-5.759-4.98
	c-7.1-1.83-13.89,5.88-13.49,11.491c0.641,4.581-5.35,5.22-6.25,5.43c5.92,2.062,8.439,2.541,13.919,1.38
	C19.199,35.374,28.449,30.673,25.999,23.062z"/>
</svg>
