<?xml version="1.0" encoding="utf-8"?>
<!-- Generator: Adobe Illustrator 17.0.0, SVG Export Plug-In . SVG Version: 6.00 Build 0)  -->
<!DOCTYPE svg PUBLIC "-//W3C//DTD SVG 1.1//EN" "http://www.w3.org/Graphics/SVG/1.1/DTD/svg11.dtd">
<svg version="1.1" id="Layer_1" xmlns="http://www.w3.org/2000/svg" xmlns:xlink="http://www.w3.org/1999/xlink" x="0px" y="0px"
	 width="42px" height="42px" viewBox="0 0 42 42" enable-background="new 0 0 42 42" xml:space="preserve">
<g>
	<path fill="#FFFFFF" d="M27.5,9.045c4.91,1.982,8.37,6.799,8.37,12.425c0,5.627-3.46,10.441-8.37,12.424v2.795
		c6.391-2.092,11-8.119,11-15.219c0-7.099-4.609-13.125-11-15.228V9.045z M27.5,15.644c1.641,1.402,2.68,3.494,2.68,5.827
		c0,2.334-1.039,4.424-2.68,5.826v2.844c2.99-1.731,5-4.966,5-8.67c0-3.703-2.01-6.937-5-8.67V15.644z M4.5,29.479h8l9,11.015
		c1,1.44,3.34,1.331,4-0.302V2.83c-0.811-1.632-2.939-1.763-4-0.382l-9,11.053h-8c-2.561,0-3,0.461-3,2.964v10.012
		C1.5,28.919,2,29.479,4.5,29.479z"/>
</g>
</svg>
