<?xml version="1.0" encoding="UTF-8" standalone="no"?>
<svg width="44px" height="46px" viewBox="0 0 44 46" version="1.1" xmlns="http://www.w3.org/2000/svg" xmlns:xlink="http://www.w3.org/1999/xlink" xmlns:sketch="http://www.bohemiancoding.com/sketch/ns">
    <title>ico-text</title>
    <description>Created with Sketch (http://www.bohemiancoding.com/sketch)</description>
    <defs></defs>
    <g id="Page-1" stroke="none" stroke-width="1" fill="none" fill-rule="evenodd" sketch:type="MSPage">
        <path d="M0,0 L0,15 L4,15 L4,9.48 C4,6.375 6.863,5 8.182,5 L17,5 L17,35.02 C17,37.255 15.783,42 12.449,42 L8,42 L8,46 L37,46 L37,42 L33.05,42 C29.59,42 27,36.95 27,35.069 L27,34.566 L27,5 L35.75,5 C37.1,5 40,6.375 40,9.48 L40,15 L44,15 L44,0 L0,0" id="Imported-Layers" fill="#FFFFFF" sketch:type="MSShapeGroup"></path>
    </g>
</svg>