<?xml version="1.0" encoding="UTF-8" standalone="no"?>
<svg width="48px" height="40px" viewBox="0 0 48 40" version="1.1" xmlns="http://www.w3.org/2000/svg" xmlns:xlink="http://www.w3.org/1999/xlink" xmlns:sketch="http://www.bohemiancoding.com/sketch/ns">
    <title>ico-rounded-rect</title>
    <description>Created with Sketch (http://www.bohemiancoding.com/sketch)</description>
    <defs></defs>
    <g id="Page-1" stroke="none" stroke-width="1" fill="none" fill-rule="evenodd" sketch:type="MSPage">
        <path d="M35.75,0 L12.344,0 C5.716,0 0,5.773 0,12.4 L0,27.666 C0,34.294 5.685,40 12.312,40 L35.781,40 C42.409,40 48,34.361 48,27.733 L48,12.467 C48,5.839 42.377,0 35.75,0 L35.75,0 Z M45,27 C45,32.523 40.523,37 35,37 L13,37 C7.477,37 3,32.523 3,27 L3,13 C3,7.477 7.477,3 13,3 L35,3 C40.523,3 45,7.477 45,13 L45,27 L45,27 Z" id="Imported-Layers" fill="#FFFFFF" sketch:type="MSShapeGroup"></path>
    </g>
</svg>