<?xml version="1.0" encoding="utf-8"?>
<!-- Generator: Adobe Illustrator 17.0.0, SVG Export Plug-In . SVG Version: 6.00 Build 0)  -->
<!DOCTYPE svg PUBLIC "-//W3C//DTD SVG 1.1//EN" "http://www.w3.org/Graphics/SVG/1.1/DTD/svg11.dtd">
<svg version="1.1" id="Layer_1" xmlns="http://www.w3.org/2000/svg" xmlns:xlink="http://www.w3.org/1999/xlink" x="0px" y="0px"
	 width="1000px" height="1000px" viewBox="0 0 1000 1000" enable-background="new 0 0 1000 1000" xml:space="preserve">
<path fill-rule="evenodd" clip-rule="evenodd" fill="#29ABE2" d="M113.056,176.791c0-3.876,1.034-6.848,5.943-6.848
	c38.243-1.938,94.316-2.972,153.231-2.972c164.988,0,236.565,90.44,236.565,206.332c0,151.164-108.916,216.022-243.413,216.022
	c-22.61,0-36.047-0.646-51.809-0.646l2.196,226.488c0,4.91-1.938,6.848-6.848,6.848l-86.822-0.388c-4.91,0-6.848-1.938-6.848-6.848
	L113.056,176.791z M213.573,493.46c13.695,0.904,30.104,0.517,53.747,0.517c69.639,0,134.497-24.548,134.497-118.735
	c0-75.582-46.124-113.954-125.712-113.954c-23.514,0-51.68,1.421-62.533,2.326V493.46z M753.371,422.4
	c-47.158,0-62.92,23.514-62.92,43.153c0,21.576,10.853,36.305,73.644,68.734c93.282,45.22,122.74,88.373,122.74,152.198
	c0,95.22-72.61,146.384-170.802,146.384c-52.068,0-91.215-10.724-116.668-25.452c-4.005-1.938-4.91-4.91-4.91-9.819v-87.339
	c0-5.943,2.972-7.881,6.848-4.91c37.339,24.548,75.453,35.142,114.73,35.142c47.158,0,66.796-19.638,66.796-46.124
	c0-21.576-13.824-40.31-73.644-71.706c-84.497-40.31-119.768-81.525-119.768-150.26c0-76.616,59.82-140.44,163.955-140.44
	c51.034,0,82.559,6.46,102.197,15.246c4.91,2.972,5.814,7.881,5.814,11.886v81.525c0,4.78-2.842,7.752-8.786,5.814
	C826.11,430.669,791.614,422.4,753.371,422.4z"/>
</svg>
