<?xml version="1.0" encoding="UTF-8" standalone="no"?>
<svg width="18px" height="18px" viewBox="0 0 18 18" version="1.1" xmlns="http://www.w3.org/2000/svg" xmlns:xlink="http://www.w3.org/1999/xlink" xmlns:sketch="http://www.bohemiancoding.com/sketch/ns">
    <title>RegionSelect_Md</title>
    <description>Created with Sketch (http://www.bohemiancoding.com/sketch)</description>
    <defs></defs>
    <g id="Page-1" stroke="none" stroke-width="1" fill="none" fill-rule="evenodd" sketch:type="MSPage">
        <g id="RegionSelect_Md" sketch:type="MSArtboardGroup" fill="#FFFFFF">
            <path d="M4.87205047,10.4009454 C5.71205047,10.3609454 5.90205047,11.0509454 5.80205047,11.4809454 C5.75205047,11.6909454 5.14205047,12.0609454 4.82205047,12.0209454 L4.02205047,10.6709454 C4.02205047,10.6709454 4.25205047,10.4809454 4.87205047,10.4009454 L4.87205047,10.4009454 Z M3.22205047,9.95094545 C2.74205047,9.58094545 2.60205047,9.31094545 2.50205047,8.95094545 C2.29205047,8.19094545 2.35205047,7.36094545 2.85205047,6.53094545 C3.87205047,4.83094545 6.43205047,3.42094545 9.38205047,3.22094545 C9.73205047,3.19094545 10.0820505,3.19094545 10.4120505,3.19094545 C13.5420505,3.19094545 15.4920505,4.65094545 15.6220505,6.27094545 C15.8320505,8.77094545 11.0420505,10.6509454 8.22205047,10.7809454 C7.41205047,10.8209454 7.52205047,10.8609454 6.79205047,10.7809454 C6.75205047,9.42094545 4.70205047,9.14094545 3.22205047,9.95094545 L3.22205047,9.95094545 Z M2.34205047,11.6109454 C2.99205047,10.3209454 3.84205047,12.2809454 3.84205047,12.2809454 C3.59205047,12.4609454 3.13205047,12.7109454 2.76205047,12.4409454 C2.39205047,12.2109454 2.29205047,11.8509454 2.34205047,11.6109454 L2.34205047,11.6109454 Z M10.4520505,2.00094545 C10.0820505,2.01094545 9.71205047,2.06094545 9.33205047,2.08094545 C4.99205047,2.30094545 1.30205047,4.85094545 1.01205047,8.03094545 C0.932050475,8.88094545 1.25205047,9.93094545 1.92205047,10.6609454 C1.33205047,11.3609454 1.23205047,11.6509454 1.38205047,12.2709454 C1.57205047,12.9609454 2.10205047,13.3809454 3.01205047,13.3809454 C3.54205047,13.3809454 4.25205047,13.0809454 4.25205047,13.0809454 C4.46205047,12.9709454 5.13205047,13.3009454 5.11205047,14.2109454 C4.93205047,14.7109454 3.94205047,15.7909454 3.66205047,16.0009454 L4.98205047,16.0009454 C5.09205047,15.8809454 6.36205047,14.6309454 6.31205047,13.9809454 C6.28205047,13.6609454 6.21205047,13.3209454 5.66205047,12.7609454 C5.99205047,12.6409454 6.55205047,12.3109454 6.72205047,11.9509454 C7.39205047,12.0209454 7.41205047,12.0209454 8.14205047,11.9909454 C12.6430505,11.7609454 17.0220505,9.26094545 17.0020505,6.20094545 C16.9920505,3.89094545 14.1220505,1.95094545 10.4520505,2.00094545 L10.4520505,2.00094545 Z" id="Imported-Layers" sketch:type="MSShapeGroup"></path>
        </g>
    </g>
</svg>