<?xml version="1.0" encoding="UTF-8" standalone="no"?>
<svg width="18px" height="18px" viewBox="0 0 18 18" version="1.1" xmlns="http://www.w3.org/2000/svg" xmlns:xlink="http://www.w3.org/1999/xlink" xmlns:sketch="http://www.bohemiancoding.com/sketch/ns">
    <title>Text_Md</title>
    <description>Created with Sketch (http://www.bohemiancoding.com/sketch)</description>
    <defs></defs>
    <g id="Page-1" stroke="none" stroke-width="1" fill="none" fill-rule="evenodd" sketch:type="MSPage">
        <g id="Text_Md" sketch:type="MSArtboardGroup" fill="#FFFFFF">
            <path d="M8,3 L8,13 C8,13 7.73,13.82 7.69,13.85 C7.44,14.12 6,14.4 6,14.4 L6,15 L12,15 L12,14.45 C12,14.45 10.57,14.02 10.33,13.83 C10.11,13.66 10,13 10,13 L10,3 L12.04,2.99 C12.04,2.99 12.87,2.98 13.37,3.37 C13.87,3.76 14.39,5.46 14.39,5.46 L15,5.46 L14.44,2 L3.56,2 L3,5.46 L3.59,5.44 C3.59,5.44 4.22,3.79 4.66,3.4 C5.1,3.01 6,2.98 6,2.98 L8,3" id="Imported-Layers" sketch:type="MSShapeGroup"></path>
        </g>
    </g>
</svg>