<?xml version="1.0" encoding="UTF-8" standalone="no"?>
<svg width="18px" height="18px" viewBox="0 0 18 18" version="1.1" xmlns="http://www.w3.org/2000/svg" xmlns:xlink="http://www.w3.org/1999/xlink" xmlns:sketch="http://www.bohemiancoding.com/sketch/ns">
    <title>Brush</title>
    <description>Created with Sketch (http://www.bohemiancoding.com/sketch)</description>
    <defs></defs>
    <g id="Page-1" stroke="none" stroke-width="1" fill="none" fill-rule="evenodd" sketch:type="MSPage">
        <g id="Brush" sketch:type="MSArtboardGroup" fill="#FFFFFF">
            <path d="M7.61,10.2262389 C7.61,10.2262389 6.74,10.3262389 6.59,10.3962389 C4.51,10.8562389 3.95,12.4262389 3.15,13.2162389 C1.58,14.3062389 0,14.1462389 0,14.1462389 C1.49,15.4762389 3.08,15.7062389 5.23,15.7962389 C7.32,15.7062389 9.8,14.8962389 9.92,11.8062389 C9.93,11.8062389 7.61,10.2262389 7.61,10.2262389 L7.61,10.2262389 Z M10.69,10.7062389 C12.58,8.21623887 16.57,2.29623887 16.66,1.87623887 C16.82,1.16623887 16.21,0.806238868 15.64,1.10623887 C15.05,1.44623887 10.48,6.74623887 8.5,9.11623887 L10.69,10.7062389 L10.69,10.7062389 Z" id="Imported-Layers" sketch:type="MSShapeGroup"></path>
        </g>
    </g>
</svg>