<?xml version="1.0" encoding="UTF-8" standalone="no"?>
<svg width="18px" height="18px" viewBox="0 0 18 18" version="1.1" xmlns="http://www.w3.org/2000/svg" xmlns:xlink="http://www.w3.org/1999/xlink" xmlns:sketch="http://www.bohemiancoding.com/sketch/ns">
    <title>Clone_Md</title>
    <description>Created with Sketch (http://www.bohemiancoding.com/sketch)</description>
    <defs></defs>
    <g id="Page-1" stroke="none" stroke-width="1" fill="none" fill-rule="evenodd" sketch:type="MSPage">
        <g id="Clone_Md" sketch:type="MSArtboardGroup" fill="#FFFFFF">
            <g id="Imported-EPS" sketch:type="MSLayerGroup" transform="translate(1.000000, 1.000000)">
                <g id="Page-1" sketch:type="MSShapeGroup">
                    <path d="M15,14 C15,14 14.95,11.89 14.95,11.51 C14.95,10.83 14.11,10.04 13.45,10.04 C13.12,10.04 9.45,9.95 9.45,9.95 C9.45,9.95 9.38,9.07 9.15,8.31 C8.93,7.56 8.76,6.14 9.14,5.33 C9.41,4.71 10.01,4.62 10.01,2.88 C10.01,1.17 8.88,0.32 7.63,0.3 L7.55,0.3 C6.29,0.32 4.99,1.17 4.99,2.88 C4.99,4.62 5.63,4.7 5.91,5.31 C6.28,6.12 6.06,7.54 5.84,8.29 C5.61,9.06 5.49,9.95 5.49,9.95 L1.55,10 C0.9,10 0,10.86 0,11.53 L0,14 L15,14" id="Fill-1"></path>
                    <path d="M1,15 L14,15 L14,16 L1,16 L1,15 Z" id="Fill-2"></path>
                </g>
            </g>
        </g>
    </g>
</svg>