<?xml version="1.0" encoding="UTF-8" standalone="no"?>
<svg width="18px" height="18px" viewBox="0 0 18 18" version="1.1" xmlns="http://www.w3.org/2000/svg" xmlns:xlink="http://www.w3.org/1999/xlink" xmlns:sketch="http://www.bohemiancoding.com/sketch/ns">
    <title>FreeTransform_Md</title>
    <description>Created with Sketch (http://www.bohemiancoding.com/sketch)</description>
    <defs></defs>
    <g id="Page-1" stroke="none" stroke-width="1" fill="none" fill-rule="evenodd" sketch:type="MSPage">
        <g id="FreeTransform_Md" sketch:type="MSArtboardGroup" fill="#FFFFFF">
            <g id="Imported-Layers" sketch:type="MSLayerGroup" transform="translate(1.000000, 2.000000)">
                <path d="M0,0 L0.01,12 L3,8 L8,8 L0,0" id="Fill-1" sketch:type="MSShapeGroup"></path>
                <path d="M4,1 L4,3 L5,3 L5,4 L6,4 L6,3 L14,3 L14,11 L6,11 L6,9 L5,9 L5,11 L4,11 L4,13 L6,13 L6,12 L9,12 L9,13 L11,13 L11,12 L14,12 L14,13 L16,13 L16,11 L15,11 L15,8 L16,8 L16,6 L15,6 L15,3 L16,3 L16,1 L14,1 L14,2 L11,2 L11,1 L9,1 L9,2 L6,2 L6,1 L4,1" id="Fill-2" sketch:type="MSShapeGroup"></path>
            </g>
        </g>
    </g>
</svg>