<?xml version="1.0" encoding="UTF-8" standalone="no"?>
<svg width="13px" height="13px" viewBox="0 0 13 13" version="1.1" xmlns="http://www.w3.org/2000/svg" xmlns:xlink="http://www.w3.org/1999/xlink" xmlns:sketch="http://www.bohemiancoding.com/sketch/ns">
    <title>LockAll_Xs</title>
    <description>Created with Sketch (http://www.bohemiancoding.com/sketch)</description>
    <defs></defs>
    <g id="Page-1" stroke="none" stroke-width="1" fill="none" fill-rule="evenodd" sketch:type="MSPage">
        <g id="LockAll_Xs" sketch:type="MSArtboardGroup" fill="#FFFFFF">
            <path d="M1,6 L1,10.05 C1,11.18 1.84,12 2.94,12 L9.06,12 C10.16,12 11,11.18 11,10.05 L11,6 C11,4.87 10.1,4 9,4 C9.02,3.83 9.06,3.52 9.06,3.35 C9.06,1.37 7.98,0 6,0 C4.02,0 2.94,1.37 2.94,3.35 C2.94,3.52 2.98,3.83 3,4 C1.9,4 1,4.87 1,6 L1,6 Z M8,4 L4,4 C3.96,3.84 4.06,3.53 4.06,3.35 C4.06,2.01 4.77,1.12 6,1.12 C7.3,1.12 7.94,1.95 7.94,3.35 C7.94,3.53 8.04,3.84 8,4 L8,4 Z M5,7 L7,7 L7,10 L5,10 L5,7 Z" id="Imported-Layers" sketch:type="MSShapeGroup"></path>
        </g>
    </g>
</svg>