<?xml version="1.0" encoding="UTF-8" standalone="no"?>
<svg width="18px" height="18px" viewBox="0 0 18 18" version="1.1" xmlns="http://www.w3.org/2000/svg" xmlns:xlink="http://www.w3.org/1999/xlink" xmlns:sketch="http://www.bohemiancoding.com/sketch/ns">
    <title>Magnification_Md</title>
    <description>Created with Sketch (http://www.bohemiancoding.com/sketch)</description>
    <defs></defs>
    <g id="Page-1" stroke="none" stroke-width="1" fill="none" fill-rule="evenodd" sketch:type="MSPage">
        <g id="Magnification_Md" sketch:type="MSArtboardGroup" fill="#FFFFFF">
            <path d="M2.68,6.95 C2.68,4.6 4.59,2.69 6.94,2.69 C9.3,2.69 11.21,4.6 11.21,6.95 C11.21,9.31 9.3,11.22 6.94,11.22 C4.59,11.22 2.68,9.31 2.68,6.95 L2.68,6.95 Z M15.48,13.65 L11.93,10.13 C12.48,9.23 12.88,8.07 12.88,6.94 C12.88,3.66 10.22,1 6.94,1 C3.66,1 1,3.66 1,6.94 C1,10.22 3.66,12.88 6.94,12.88 C8.06,12.88 9.05,12.63 9.94,12.1 C9.98,12.07 10.12,11.95 10.12,11.95 L13.65,15.48 C14,15.83 14.52,15.79 15.15,15.15 C15.79,14.52 15.83,14 15.48,13.65 L15.48,13.65 Z" id="Imported-Layers" sketch:type="MSShapeGroup"></path>
        </g>
    </g>
</svg>