<?xml version="1.0" encoding="UTF-8" standalone="no"?>
<svg width="18px" height="18px" viewBox="0 0 18 18" version="1.1" xmlns="http://www.w3.org/2000/svg" xmlns:xlink="http://www.w3.org/1999/xlink" xmlns:sketch="http://www.bohemiancoding.com/sketch/ns">
    <title>RectSelect_Md </title>
    <description>Created with Sketch (http://www.bohemiancoding.com/sketch)</description>
    <defs></defs>
    <g id="Page-1" stroke="none" stroke-width="1" fill="none" fill-rule="evenodd" sketch:type="MSPage">
        <g id="RectSelect_Md-" sketch:type="MSArtboardGroup" fill="#FFFFFF">
            <path d="M2,8 L3,8 L3,11 L2,11 L2,8 Z M3,6 L2,6 L2,3 L5,3 L5,4 L3,4 L3,6 L3,6 Z M2,13 L3,13 L3,15 L5,15 L5,16 L2,16 L2,13 L2,13 Z M7,3 L11,3 L11,4 L7,4 L7,3 Z M7,15 L11,15 L11,16 L7,16 L7,15 Z M15,4 L13,4 L13,3 L16,3 L16,6 L15,6 L15,4 L15,4 Z M15,8 L16,8 L16,11 L15,11 L15,8 Z M13,15 L15,15 L15,13 L16,13 L16,16 L13,16 L13,15 Z" id="Imported-Layers" sketch:type="MSShapeGroup"></path>
        </g>
    </g>
</svg>