<?xml version="1.0" encoding="UTF-8" standalone="no"?>
<svg width="18px" height="18px" viewBox="0 0 18 18" version="1.1" xmlns="http://www.w3.org/2000/svg" xmlns:xlink="http://www.w3.org/1999/xlink" xmlns:sketch="http://www.bohemiancoding.com/sketch/ns">
    <title>Sampler_Md</title>
    <description>Created with Sketch (http://www.bohemiancoding.com/sketch)</description>
    <defs></defs>
    <g id="Page-1" stroke="none" stroke-width="1" fill="none" fill-rule="evenodd" sketch:type="MSPage">
        <g id="Sampler_Md" sketch:type="MSArtboardGroup" fill="#FFFFFF">
            <path d="M15.622954,1.35 C15.352954,1.13 15.002954,1 14.632954,1 C14.092954,1 13.792954,1.26 13.422954,1.67 L11.492954,3.71 L10.282954,2.5 L8.14295405,4.65 L8.91295405,5.43 L2.34295405,12.01 C1.65295405,12.76 2.23295405,13.29 1.42295405,13.88 C1.14295405,14.09 0.67295405,14.86 1.34295405,15.63 L1.37295405,15.66 C2.15295405,16.33 2.91295405,15.86 3.12295405,15.58 C3.71295405,14.77 4.24295405,15.35 4.99295405,14.66 L11.572954,8.09 L12.352954,8.86 L14.502954,6.72 L13.292954,5.51 L15.332954,3.58 C15.742954,3.21 16.002954,2.91 16.002954,2.37 C16.002954,2 15.872954,1.65 15.652954,1.38 L15.622954,1.35 L15.622954,1.35 Z M10.932954,7.44 L4.44295405,13.93 C3.89295405,14.48 3.23295405,14.18 3.04295405,13.99 L3.01295405,13.96 C2.84295405,13.8 2.50295405,13.14 3.09295405,12.54 L9.56295405,6.07 L10.932954,7.44 L10.932954,7.44 Z M2.53295405,15.09 C2.36295405,15.26 2.10295405,15.26 1.93295405,15.09 C1.77295405,14.93 1.77295405,14.66 1.93295405,14.5 C2.10295405,14.34 2.36295405,14.34 2.53295405,14.5 C2.69295405,14.66 2.69295405,14.93 2.53295405,15.09 L2.53295405,15.09 Z" id="Imported-Layers" sketch:type="MSShapeGroup"></path>
        </g>
    </g>
</svg>