<?xml version="1.0" encoding="UTF-8" standalone="no"?>
<svg width="13px" height="14px" viewBox="0 0 13 14" version="1.1" xmlns="http://www.w3.org/2000/svg" xmlns:xlink="http://www.w3.org/1999/xlink" xmlns:sketch="http://www.bohemiancoding.com/sketch/ns">
    <title>Visibility_Xs</title>
    <description>Created with Sketch (http://www.bohemiancoding.com/sketch)</description>
    <defs></defs>
    <g id="Page-1" stroke="none" stroke-width="1" fill="none" fill-rule="evenodd" sketch:type="MSPage">
        <g id="Visibility_Xs" sketch:type="MSArtboardGroup" fill="#FFFFFF">
            <path d="M6.531,2 C1.246,2 0,6.562 0,6.884 C0,7.244 2.068,10.813 6.456,10.813 C11.434,10.813 12.982,7.281 13,6.884 C13.002,6.279 11.222,2 6.531,2 L6.531,2 Z M6.469,4.532 C7.225,4.532 7.445,5.027 7.445,5.546 C7.445,6.066 7.125,6.457 6.485,6.457 C5.816,6.457 5.491,6.011 5.491,5.492 C5.491,4.972 5.771,4.532 6.469,4.532 L6.469,4.532 Z M0.901,6.856 C0.864,6.477 1.6,5.632 2.171,5.147 C2.414,4.942 3.325,4.14 4.932,4.007 C4.467,4.417 4.072,4.727 4.094,5.688 C4.051,7.336 5.178,8.151 6.563,8.157 C8.15,8.163 9,7.469 9.031,5.844 C9.081,5.059 8.882,4.471 8.563,4.007 C10.604,4.816 11.898,6.147 12.069,6.884 C11.953,7.681 9.659,9.958 6.427,9.958 C2.999,9.958 0.883,7.234 0.901,6.856 Z" id="Imported-Layers" sketch:type="MSShapeGroup"></path>
        </g>
    </g>
</svg>