<?xml version="1.0" encoding="utf-8"?>
<!-- Generator: Adobe Illustrator 17.1.0, SVG Export Plug-In . SVG Version: 6.00 Build 0)  -->
<!DOCTYPE svg PUBLIC "-//W3C//DTD SVG 1.1//EN" "http://www.w3.org/Graphics/SVG/1.1/DTD/svg11.dtd">
<svg version="1.1" id="Layer_1" xmlns="http://www.w3.org/2000/svg" xmlns:xlink="http://www.w3.org/1999/xlink" x="0px" y="0px"
	 viewBox="0 0 50 50" enable-background="new 0 0 50 50" xml:space="preserve">
<path fill-rule="evenodd" clip-rule="evenodd" fill="#FFFFFF" d="M30.45,30.173c3.586-5.818,11.313-19.561,11.22-20.541
	c-0.147-1.627-0.605-1.773-2.252-1.616C38.406,8.119,29.407,21.31,25.612,26.858L30.45,30.173z M23.911,29.444
	c0,0-1.813,0.345-2.127,0.5c-4.294,1.282-5.233,4.871-6.798,6.757c-3.138,2.617-6.475,2.451-6.475,2.451
	c3.327,2.816,6.694,3.138,11.23,3.096c4.369-0.437,9.448-2.553,9.25-9.51C29.011,32.728,23.911,29.444,23.911,29.444z"/>
</svg>
