<?xml version="1.0" encoding="utf-8"?>
<!-- Generator: Adobe Illustrator 17.1.0, SVG Export Plug-In . SVG Version: 6.00 Build 0)  -->
<!DOCTYPE svg PUBLIC "-//W3C//DTD SVG 1.1//EN" "http://www.w3.org/Graphics/SVG/1.1/DTD/svg11.dtd">
<svg version="1.1" id="Layer_1" xmlns="http://www.w3.org/2000/svg" xmlns:xlink="http://www.w3.org/1999/xlink" x="0px" y="0px"
	 viewBox="-4 -4 50 50" enable-background="new -4 -4 50 50" xml:space="preserve">
<g>
	<path fill="#41B3E1" d="M19.6,29.2l3.8,3.8c0,0,15.8-15.8,15.8-15.8c1.9-1.9,1.8-2.7,0-4.5c0,0-1.5-1.5-1.5-1.5L19.6,29.2z
		 M17.9,27.5l18-18l-3.6-3.6l-18,18L17.9,27.5z M30.9,4.4l-1.5-1.5c-1.9-1.9-2.6-1.9-4.5,0L9.1,18.7l3.8,3.8L30.9,4.4z M7.6,20.2
		L0.5,41.5l21.3-7L7.6,20.2z M6.1,30.9l5.3,5.3l-7.6,2.3L6.1,30.9z"/>
</g>
</svg>
