<?xml version="1.0" encoding="utf-8"?>
<!-- Generator: Adobe Illustrator 17.1.0, SVG Export Plug-In . SVG Version: 6.00 Build 0)  -->
<!DOCTYPE svg PUBLIC "-//W3C//DTD SVG 1.1//EN" "http://www.w3.org/Graphics/SVG/1.1/DTD/svg11.dtd">
<svg version="1.1" id="Layer_1" xmlns="http://www.w3.org/2000/svg" xmlns:xlink="http://www.w3.org/1999/xlink" x="0px" y="0px"
	 viewBox="0 0 50 50" enable-background="new 0 0 50 50" xml:space="preserve">
<path fill="#FFFFFF" d="M29.16,9.768c-0.778,0-1.584,0.033-2.398,0.098c-8.55,0.692-17.58,4.942-18.473,12.876
	c-0.218,1.94,0.513,3.725,2.116,5.182c-1.022,0.834-1.646,2.489-1.311,3.85c0.41,1.529,1.319,2.015,3.274,2.015
	c0.455,0,1.401-0.101,2.015-0.168l0.271-0.303c0.814,0.608,2.095,1.814,2.183,2.818c0.083,1.151-1.486,2.618-2.097,3.085
	l-0.799,0.612l3.214-0.03l0.098-0.105c0.243-0.261,2.366-2.589,2.255-4.032c-0.07-0.706-0.144-1.188-1.32-2.436
	c0.704-0.262,1.776-1.148,2.127-1.959c1.449,0.157,1.486,0.171,3.053,0.093c9.692-0.504,19.169-6.984,19.133-13.085
	C42.441,13.188,37.079,9.768,29.16,9.768z M11.192,30.346c0.448-2.211,1.59-0.394,2.015-0.532l0.084,1.12l0.184,0.904
	c-0.518-0.019-1.187-0.107-1.527-0.065C11.276,31.857,11.085,30.877,11.192,30.346z M14.454,26.491
	c-0.422,0.051-0.819,0.121-1.271,0.208c-1.006-0.622-1.655-1.366-1.877-2.154c-0.45-1.676-0.034-3.471,1.207-5.191
	c2.604-3.612,8.359-6.367,13.994-6.699c0.766-0.045,1.515-0.068,2.227-0.068c6.733,0,10.744,2.055,11.007,5.639
	c0.097,1.213-0.505,2.596-1.74,3.998c-3.077,3.494-8.987,6.112-14.372,6.367c-1.742,0.074-1.456,0.007-3.033-0.176
	c0.47-3.056-3.034-2.519-4.869-2.519C15.478,25.897,14.723,26.463,14.454,26.491z M16.677,28.359c1.343-0.336,1.791,1,1.791,1.959
	c0,0.466-1.584,0.77-2.155,1.026l-0.644-1.53L16.677,28.359z"/>
</svg>
