<?xml version="1.0" encoding="utf-8"?>
<!-- Generator: Adobe Illustrator 17.1.0, SVG Export Plug-In . SVG Version: 6.00 Build 0)  -->
<!DOCTYPE svg PUBLIC "-//W3C//DTD SVG 1.1//EN" "http://www.w3.org/Graphics/SVG/1.1/DTD/svg11.dtd">
<svg version="1.1" id="Layer_1" xmlns="http://www.w3.org/2000/svg" xmlns:xlink="http://www.w3.org/1999/xlink" x="0px" y="0px"
	 viewBox="0 0 50 50" enable-background="new 0 0 50 50" xml:space="preserve">
<path fill-rule="evenodd" clip-rule="evenodd" fill="#FFFFFF" d="M32.812,10H17.258C12.287,10,8,14.579,8,19.55V31
	c0,4.971,4.264,9,9.234,9h15.601C37.807,40,42,36.021,42,31.05V19.6C42,14.629,37.783,10,32.812,10z M40,30.5
	c0,4.142-3.358,7.5-7.5,7.5h-15c-4.142,0-7.5-3.358-7.5-7.5v-11c0-4.142,3.358-7.5,7.5-7.5h15c4.142,0,7.5,3.358,7.5,7.5V30.5z"/>
</svg>
