<?xml version="1.0" encoding="utf-8"?>
<!-- Generator: Adobe Illustrator 17.1.0, SVG Export Plug-In . SVG Version: 6.00 Build 0)  -->
<!DOCTYPE svg PUBLIC "-//W3C//DTD SVG 1.1//EN" "http://www.w3.org/Graphics/SVG/1.1/DTD/svg11.dtd">
<svg version="1.1" id="Layer_1" xmlns="http://www.w3.org/2000/svg" xmlns:xlink="http://www.w3.org/1999/xlink" x="0px" y="0px"
	 viewBox="0 0 50 50" enable-background="new 0 0 50 50" xml:space="preserve">
<g>
	<path fill-rule="evenodd" clip-rule="evenodd" fill="#FFFFFF" d="M39.266,7.472c-1.217,0-2.198,0.538-2.818,1.499l-4.311,4.586
		l-2.724-2.721l-4.825,4.824l1.724,1.724l-14.82,14.819c0,0,1.09,1.797-2.068,4.136c-0.66,0.479-1.8,2.337,0,4.136
		c2.02,2.018,3.618,0.643,4.137-0.057c2.56-3.419,4.137-2.011,4.137-2.011l14.818-14.82l1.723,1.723l4.825-4.826l-2.571-2.572
		l4.812-4.184c0.92-0.621,1.441-1.58,1.441-2.779C42.746,9.03,41.185,7.472,39.266,7.472z M17.75,36H17v-1h-1v1h-1v-1h-1v0.327V36
		h0.249L14,36.543V36h-1v1h0.79l-0.918,2H12v-1h-1v-0.971l3-1.702l-0.042-3.244L19,27h1v1h1v-1h1v1h1v-1h1v1h1v-1h1.667L17.75,36z
		 M27.345,26h-6.892l7.238-7.237l3.445,3.445L27.345,26z"/>
	<rect x="23" y="28" fill-rule="evenodd" clip-rule="evenodd" fill="#FFFFFF" width="1" height="1"/>
	<rect x="21" y="28" fill-rule="evenodd" clip-rule="evenodd" fill="#FFFFFF" width="1" height="1"/>
	<rect x="19" y="28" fill-rule="evenodd" clip-rule="evenodd" fill="#FFFFFF" width="1" height="1"/>
	<rect x="18" y="29" fill-rule="evenodd" clip-rule="evenodd" fill="#FFFFFF" width="1" height="1"/>
	<rect x="20" y="29" fill-rule="evenodd" clip-rule="evenodd" fill="#FFFFFF" width="1" height="1"/>
	<rect x="22" y="29" fill-rule="evenodd" clip-rule="evenodd" fill="#FFFFFF" width="1" height="1"/>
	<rect x="21" y="30" fill-rule="evenodd" clip-rule="evenodd" fill="#FFFFFF" width="1" height="1"/>
	<rect x="19" y="30" fill-rule="evenodd" clip-rule="evenodd" fill="#FFFFFF" width="1" height="1"/>
	<rect x="17" y="30" fill-rule="evenodd" clip-rule="evenodd" fill="#FFFFFF" width="1" height="1"/>
	<rect x="16" y="31" fill-rule="evenodd" clip-rule="evenodd" fill="#FFFFFF" width="1" height="1"/>
	<rect x="18" y="31" fill-rule="evenodd" clip-rule="evenodd" fill="#FFFFFF" width="1" height="1"/>
	<rect x="20" y="31" fill-rule="evenodd" clip-rule="evenodd" fill="#FFFFFF" width="1" height="1"/>
	<rect x="19" y="32" fill-rule="evenodd" clip-rule="evenodd" fill="#FFFFFF" width="1" height="1"/>
	<rect x="17" y="32" fill-rule="evenodd" clip-rule="evenodd" fill="#FFFFFF" width="1" height="1"/>
	<rect x="15" y="32" fill-rule="evenodd" clip-rule="evenodd" fill="#FFFFFF" width="1" height="1"/>
	<rect x="14" y="33" fill-rule="evenodd" clip-rule="evenodd" fill="#FFFFFF" width="1" height="1"/>
	<rect x="16" y="33" fill-rule="evenodd" clip-rule="evenodd" fill="#FFFFFF" width="1" height="1"/>
	<rect x="18" y="33" fill-rule="evenodd" clip-rule="evenodd" fill="#FFFFFF" width="1" height="1"/>
	<rect x="17" y="34" fill-rule="evenodd" clip-rule="evenodd" fill="#FFFFFF" width="1" height="1"/>
	<rect x="15" y="34" fill-rule="evenodd" clip-rule="evenodd" fill="#FFFFFF" width="1" height="1"/>
	<rect x="12" y="37" fill-rule="evenodd" clip-rule="evenodd" fill="#FFFFFF" width="1" height="1"/>
</g>
</svg>
