<?xml version="1.0" encoding="utf-8"?>
<!-- Generator: Adobe Illustrator 17.1.0, SVG Export Plug-In . SVG Version: 6.00 Build 0)  -->
<!DOCTYPE svg PUBLIC "-//W3C//DTD SVG 1.1//EN" "http://www.w3.org/Graphics/SVG/1.1/DTD/svg11.dtd">
<svg version="1.1" id="Layer_1" xmlns="http://www.w3.org/2000/svg" xmlns:xlink="http://www.w3.org/1999/xlink" x="0px" y="0px"
	 viewBox="0 0 50 50" enable-background="new 0 0 50 50" xml:space="preserve">
<g>
	<path fill-rule="evenodd" clip-rule="evenodd" fill="#FFFFFF" d="M27.876,13.963c-6.072,3.487-12.242,5.179-12.242,5.179
		S9.411,34.956,7.245,39.932c-0.054,0.116-0.14,0.986-0.146,1.212l12.838-12.837c-0.049-0.298-0.071-0.616-0.036-0.972
		c0.106-1.182,1.072-1.567,2.251-1.567c1.179,0,1.994,0.601,1.994,1.695c0,1.887-0.922,2.896-2.102,2.896
		c-0.312,0-0.622-0.082-0.907-0.23L8.477,42.789c0.319,0.002,0.607-0.01,0.723-0.056c5.04-2.124,21.447-8.579,21.447-8.579
		s1.669-6.292,5.382-12.039L27.876,13.963z"/>
	<polygon fill-rule="evenodd" clip-rule="evenodd" fill="#FFFFFF" points="39.352,22.404 42.871,18.391 31.503,6.961 27.554,10.606 
			"/>
</g>
</svg>
