<?xml version="1.0" encoding="utf-8"?>
<!-- Generator: Adobe Illustrator 17.0.0, SVG Export Plug-In . SVG Version: 6.00 Build 0)  -->
<!DOCTYPE svg PUBLIC "-//W3C//DTD SVG 1.1//EN" "http://www.w3.org/Graphics/SVG/1.1/DTD/svg11.dtd">
<svg version="1.1"
	 id="Layer_1" xmlns:dc="http://purl.org/dc/elements/1.1/" xmlns:rdf="http://www.w3.org/1999/02/22-rdf-syntax-ns#" xmlns:inkscape="http://www.inkscape.org/namespaces/inkscape" xmlns:sodipodi="http://sodipodi.sourceforge.net/DTD/sodipodi-0.dtd" xmlns:svg="http://www.w3.org/2000/svg" xmlns:cc="http://creativecommons.org/ns#" inkscape:export-xdpi="360" inkscape:export-filename="C:\Users\erikv_000\Pictures\DBB\html.png" sodipodi:docname="html.svg" inkscape:export-ydpi="360" inkscape:version="0.48.4 r9939"
	 xmlns="http://www.w3.org/2000/svg" xmlns:xlink="http://www.w3.org/1999/xlink" x="0px" y="0px" width="100px" height="100px"
	 viewBox="0 0 100 100" enable-background="new 0 0 100 100" xml:space="preserve">
<sodipodi:namedview  id="namedview35" inkscape:zoom="2.86" inkscape:cy="53.53935" objecttolerance="10" inkscape:cx="50" showgrid="false" bordercolor="#666666" borderopacity="1" gridtolerance="10" guidetolerance="10" pagecolor="#ffffff" inkscape:window-maximized="0" inkscape:window-width="640" inkscape:window-y="0" inkscape:window-x="0" inkscape:current-layer="Layer_1" inkscape:pageopacity="0" inkscape:window-height="480" inkscape:pageshadow="2">
	</sodipodi:namedview>
<path id="path3" inkscape:connector-curvature="0" opacity="0.8" fill="#FFFFFF" d="M53.734,56.649
	c-0.001-0.01-0.002-0.021-0.001-0.031c-0.001,0.01-0.002,0.02-0.002,0.03C53.731,56.649,53.732,56.649,53.734,56.649z"/>
<path id="path5" inkscape:connector-curvature="0" opacity="0.8" fill="#FFFFFF" d="M67.175,63.658
	c-0.212,0.125-0.428,0.241-0.643,0.358c-0.001,0.002-0.001,0.005-0.002,0.006C66.736,63.91,66.953,63.789,67.175,63.658z"/>
<path id="path7" inkscape:connector-curvature="0" opacity="0.8" fill="#FFFFFF" d="M48.141,65.142l-0.002,0.002
	c0.446,0.195,0.988,0.379,1.494,0.533l0.008-0.008C49.134,65.512,48.635,65.337,48.141,65.142z"/>
<path id="path9" inkscape:connector-curvature="0" opacity="0.8" fill="#FFFFFF" d="M49.631,65.678
	c0.512,0.155,0.986,0.277,1.283,0.352c-0.429-0.106-0.853-0.23-1.275-0.36L49.631,65.678z"/>
<path id="path11" inkscape:connector-curvature="0" opacity="0.8" fill="#FFFFFF" d="M51.23,66.106l0.004-0.004
	c-0.078-0.019-0.155-0.032-0.232-0.052C51.144,66.086,51.23,66.106,51.23,66.106z"/>
<path id="path13" inkscape:connector-curvature="0" opacity="0.8" fill="#FFFFFF" d="M66.199,64.198
	c-0.508,0.266-1.027,0.506-1.55,0.728c-0.001,0.003-0.002,0.006-0.003,0.008C64.698,64.913,65.324,64.654,66.199,64.198z"/>
<path id="path15" inkscape:connector-curvature="0" opacity="0.8" fill="#FFFFFF" d="M66.529,64.021
	c0.001-0.001,0.002-0.004,0.002-0.006c-0.083,0.047-0.166,0.096-0.251,0.139C66.363,64.112,66.447,64.068,66.529,64.021z"/>
<path id="path17" inkscape:connector-curvature="0" opacity="0.8" fill="#FFFFFF" d="M50.339,20.544l-9.289,9.289
	c-0.802,0.802-1.529,1.651-2.18,2.539c-0.142,0.193-0.27,0.394-0.405,0.59c4.487-1.215,9.251-1.144,13.703,0.218l0.76-0.76
	l5.122-5.12c4.493-4.493,11.779-4.492,16.272,0.001c4.493,4.493,4.493,11.779,0.001,16.272l-5.84,5.84l-1.202,1.202l-1.169,1.169
	l-0.004,0.004l-1.946,1.946c-2.028,2.028-4.625,3.137-7.277,3.335v0.004c-0.001-0.001-0.002-0.001-0.003-0.001
	c-0.557,0.049-1.036,0.052-1.445,0.036c-0.898-0.039-1.42-0.179-1.42-0.179c-0.001-0.002,0-0.002-0.001-0.003
	c-0.001,0-0.002,0-0.003-0.001c-2.243-0.396-4.391-1.459-6.123-3.191c-1.685-1.685-2.738-3.762-3.16-5.938
	c-0.012-0.062-0.019-0.125-0.03-0.186c-1.969,0.161-3.894,0.989-5.398,2.493l-3.094,3.094c1.06,2.686,2.669,5.206,4.841,7.378
	c2.171,2.171,4.688,3.784,7.374,4.844c0.494,0.195,0.994,0.369,1.499,0.527c0.422,0.131,0.846,0.254,1.275,0.36
	c0.033,0.008,0.058,0.014,0.087,0.021c0.077,0.02,0.154,0.033,0.232,0.052c4.452,1.025,9.161,0.633,13.416-1.175
	c0.523-0.223,1.042-0.463,1.55-0.728c0.028-0.014,0.055-0.028,0.082-0.044c0.085-0.044,0.168-0.093,0.251-0.139
	c0.215-0.117,0.431-0.233,0.643-0.358c0.002-0.002,0.005-0.002,0.008-0.004c1.542-0.913,2.997-2.031,4.321-3.355l9.289-9.289
	c8.488-8.488,8.488-22.25,0-30.738C72.589,12.057,58.827,12.056,50.339,20.544z"/>
<path id="path19" inkscape:connector-curvature="0" opacity="0.8" fill="#FFFFFF" d="M51.059,81.301l9.289-9.289
	c0.803-0.803,1.529-1.653,2.18-2.541c0.142-0.193,0.271-0.394,0.405-0.59c-4.487,1.216-9.251,1.145-13.703-0.218l-0.76,0.76
	l-5.122,5.122c-4.493,4.493-11.778,4.493-16.272-0.001c-4.493-4.493-4.493-11.778,0-16.271l5.84-5.84l1.201-1.201l1.169-1.169
	l0.004-0.004l1.945-1.945c2.028-2.028,4.624-3.136,7.276-3.334l-0.001-0.003c0.001,0,0.002,0.001,0.003,0.001
	c0.557-0.05,1.036-0.053,1.445-0.036c0.898,0.037,1.419,0.179,1.419,0.179c0.001,0.001,0.001,0.002,0.001,0.003
	c0.001-0.001,0.002-0.001,0.004,0c2.243,0.396,4.391,1.458,6.123,3.19c1.685,1.685,2.738,3.763,3.159,5.938
	c0.013,0.063,0.02,0.125,0.03,0.186c1.97-0.161,3.896-0.988,5.399-2.492l3.094-3.094c-1.061-2.686-2.671-5.205-4.843-7.378
	c-2.172-2.172-4.688-3.784-7.374-4.844c-0.494-0.195-0.994-0.369-1.499-0.527c-0.422-0.131-0.847-0.255-1.275-0.36
	c-0.033-0.008-0.059-0.015-0.087-0.022c-0.077-0.018-0.155-0.033-0.231-0.051c-4.452-1.025-9.162-0.633-13.416,1.175
	c-0.523,0.223-1.041,0.463-1.55,0.728c-0.028,0.014-0.055,0.029-0.083,0.044c-0.084,0.045-0.166,0.094-0.25,0.141
	c-0.215,0.116-0.431,0.233-0.643,0.358c-0.003,0.002-0.004,0.003-0.007,0.004c-1.543,0.911-2.997,2.029-4.322,3.355l-9.288,9.288
	c-8.488,8.488-8.488,22.249,0,30.738C28.809,89.789,42.571,89.79,51.059,81.301z"/>
<path id="path21" inkscape:connector-curvature="0" opacity="0.8" fill="#FFFFFF" d="M67.183,63.653
	c-0.002,0.001-0.006,0.002-0.008,0.004C67.177,63.655,67.18,63.655,67.183,63.653z"/>
<path id="path23" inkscape:connector-curvature="0" opacity="0.8" fill="#FFFFFF" d="M66.199,64.198
	c0.028-0.014,0.055-0.028,0.082-0.044C66.255,64.17,66.227,64.184,66.199,64.198z"/>
<path id="path25" inkscape:connector-curvature="0" opacity="0.8" fill="#FFFFFF" d="M53.734,56.652c0,0,0.522,0.14,1.42,0.179
	c-0.001-0.007-0.001-0.014,0.001-0.019c-0.476-0.023-0.951-0.08-1.421-0.163C53.734,56.65,53.734,56.65,53.734,56.652z"/>
<path id="path27" inkscape:connector-curvature="0" opacity="0.8" fill="#FFFFFF" d="M51.001,66.051
	c-0.029-0.007-0.055-0.013-0.087-0.021C50.944,66.037,50.972,66.044,51.001,66.051z"/>
<path id="path29" inkscape:connector-curvature="0" opacity="0.8" fill="#FFFFFF" d="M55.155,56.812
	c-0.002,0.006-0.001,0.012-0.001,0.019c0.409,0.017,0.887,0.014,1.445-0.036c-0.001-0.002-0.001-0.003-0.001-0.003
	C56.118,56.828,55.635,56.836,55.155,56.812z"/>
<path id="path31" inkscape:connector-curvature="0" opacity="0.8" fill="#FFFFFF" d="M56.602,56.793
	c-0.001-0.002-0.001-0.006-0.002-0.017c0,0.005-0.001,0.011-0.002,0.017C56.599,56.792,56.6,56.792,56.602,56.793z"/>
<rect id="rect33" x="56.598" y="56.793" opacity="0.8" fill="#FFFFFF" width="0.003" height="0.003"/>
</svg>
